# xmcd
#
# Track frame offsets: 
#        150
#        13277
#        27650
#        42552
#        56620
#        70037
#        85120
#        98015
#        110140
#        121520
#        133397
#        148680
#        159917
#        177202
#        192540
#        205852
#        218672
#        231202
#        245197
#        260352
#        273262
#        285892
#        298167
#        311585
#        325140
#
# Disc length: 4512 seconds
#
# Revision: 4
# Processed by: cddbd v1.5.1PL0 Copyright (c) Steve Scherf et al.
# Submitted via: ExactAudioCopy v0.95a5
#
DISCID=7b119e19
DTITLE=Various Artist - Street Walkin' Blues
DYEAR=1990
DGENRE=Blues
TTITLE0=Memphis Minnie - Hustlin' Woman Blues
TTITLE1=Maggie Jones - Good Time Flat Blues
TTITLE2=Virginia Liston - I've Got What It Takes
TTITLE3=Lil Johnson - New Shave 'Em Dry
TTITLE4=Sam Theard - She Skuffles That Ruff
TTITLE5=Billie Pierce - I'm In the Racket
TTITLE6=C. Williams - Street Walkin' Blues
TTITLE7=Lonnie Johnson - Crowin' Rooster Blues
TTITLE8=Georgia White - Walking the Street
TTITLE9=Ma Rainey - Hustlin' Blues
TTITLE10=Clara Smith - Kitchen Mechanic Blues
TTITLE11=Irene Scruggs - Must Get Mine In Front
TTITLE12=Bertha "Chippie" Hill - Street Walker Blues
TTITLE13=Lucille Bogan - Shave 'Em Dry
TTITLE14=George Williams and Bessie Brown - You Can't Proposition Me
TTITLE15=Ethel Waters - Bring Your Greenbacks
TTITLE16=Palooka Washboard Band (aka Harlem Hamfats) - Save Me Some
TTITLE17=Cab Calloway and his Orchestra - St. James Infirmary
TTITLE18=Cab Calloway and his Orchestra - Nobody's Sweetheart
TTITLE19=Unidentified Vocal Duet - Electric Man Blues
TTITLE20=Lovin' Sam (aka Sam Theard) - State Street Blues
TTITLE21=Lovin' Sam (aka Sam Theard) - She's Givin' It Away
TTITLE22=Al Miller - It Must Be Good
TTITLE23=Clara Smith - For Sale (Hannah Johnson's Big Jack Ass)
TTITLE24=Lonnie Johnson - Your Love Is Cold
EXTD=LABEL =Jass Records, Inc.\nID =J-CD-626\nUPC =03250-12626-25\n
EXTD=COPYRIGHT =1990\n*****\nsubtitle =25 Plaintive Paeans To the Wo
EXTD=rld's Oldest Profession, 1924-1956
EXTT0=
EXTT1=
EXTT2=
EXTT3=
EXTT4=
EXTT5=
EXTT6=
EXTT7=
EXTT8=
EXTT9=
EXTT10=
EXTT11=
EXTT12=
EXTT13=
EXTT14=
EXTT15=
EXTT16=
EXTT17=
EXTT18=
EXTT19=
EXTT20=
EXTT21=
EXTT22=
EXTT23=
EXTT24=
PLAYORDER=
